<svg width="24" height="24" viewBox="0 0 24 24" fill="none" xmlns="http://www.w3.org/2000/svg">
<path d="M24 4.67749C23.1174 5.06236 22.1693 5.3224 21.1726 5.43994C22.201 4.83434 22.9704 3.88121 23.3373 2.75838C22.371 3.32318 21.3135 3.72074 20.2107 3.93377C19.4691 3.15455 18.4868 2.63806 17.4164 2.46451C16.3459 2.29095 15.2472 2.47004 14.2907 2.97396C13.3343 3.47788 12.5737 4.27845 12.127 5.25136C11.6803 6.22427 11.5725 7.3151 11.8203 8.35449C9.86244 8.25775 7.94711 7.75697 6.19863 6.88464C4.45016 6.0123 2.90761 4.78792 1.6711 3.29095C1.2483 4.00867 1.0052 4.8408 1.0052 5.72703C1.00473 6.52483 1.20437 7.31042 1.58641 8.01408C1.96846 8.71774 2.52109 9.31773 3.19528 9.7608C2.4134 9.73632 1.64877 9.52841 0.965031 9.15438V9.21679C0.964952 10.3357 1.35827 11.4203 2.07823 12.2863C2.7982 13.1524 3.80048 13.7467 4.915 13.9683C4.18968 14.1615 3.42923 14.1899 2.69109 14.0515C3.00555 15.0143 3.61807 15.8562 4.44291 16.4594C5.26776 17.0626 6.26363 17.3969 7.29111 17.4154C5.5469 18.7629 3.39282 19.4938 1.17537 19.4905C0.782575 19.4907 0.39011 19.4681 0 19.4229C2.25083 20.8471 4.87097 21.6029 7.5469 21.6C16.6053 21.6 21.5573 14.2169 21.5573 7.81361C21.5573 7.60557 21.552 7.39546 21.5425 7.18742C22.5057 6.50193 23.3372 5.65307 23.9979 4.68062L24 4.67749Z" fill="#1DA1F2"/>
</svg>
